<?xml version="1.0" encoding="UTF-8" standalone="no"?>
<svg
   id="Layer_1"
   data-name="Layer 1"
   viewBox="0 0 2521.09 2919.69"
   version="1.1"
   sodipodi:docname="logo.svg"
   inkscape:version="1.3.2 (091e20e, 2023-11-25, custom)"
   xml:space="preserve"
   xmlns:inkscape="http://www.inkscape.org/namespaces/inkscape"
   xmlns:sodipodi="http://sodipodi.sourceforge.net/DTD/sodipodi-0.dtd"
   xmlns="http://www.w3.org/2000/svg"
   xmlns:svg="http://www.w3.org/2000/svg"><sodipodi:namedview
     id="namedview33"
     pagecolor="#ffffff"
     bordercolor="#000000"
     borderopacity="0.25"
     inkscape:showpageshadow="2"
     inkscape:pageopacity="0.0"
     inkscape:pagecheckerboard="0"
     inkscape:deskcolor="#d1d1d1"
     inkscape:zoom="0.21961318"
     inkscape:cx="949.39657"
     inkscape:cy="2039.9504"
     inkscape:window-width="2880"
     inkscape:window-height="1514"
     inkscape:window-x="-11"
     inkscape:window-y="-11"
     inkscape:window-maximized="1"
     inkscape:current-layer="Layer_1" /><defs
     id="defs1"><rect
       x="676.15443"
       y="528.04441"
       width="843.58315"
       height="283.3409"
       id="rect34" /><rect
       x="669.71486"
       y="540.92354"
       width="566.68181"
       height="218.94524"
       id="rect33" /><style
       id="style1">
      .cls-1, .cls-2, .cls-3, .cls-4, .cls-5, .cls-6 {
        fill: none;
      }

      .cls-7 {
        fill: #56b4e9;
      }

      .cls-8 {
        fill: #d55e00;
      }

      .cls-9 {
        fill: #009e73;
      }

      .cls-2 {
        stroke: #d55e00;
      }

      .cls-2, .cls-3, .cls-4, .cls-5, .cls-6 {
        stroke-miterlimit: 10;
        stroke-width: 30px;
      }

      .cls-10 {
        fill: #4d4d4d;
      }

      .cls-3 {
        stroke: #0072b2;
      }

      .cls-11 {
        fill: #fff;
      }

      .cls-4 {
        stroke: #009e73;
      }

      .cls-12 {
        fill: #0072b2;
      }

      .cls-13 {
        fill: #f5c710;
      }

      .cls-5 {
        stroke: #f5c710;
      }

      .cls-6 {
        stroke: #56b4e9;
      }
    </style></defs><polygon
     class="cls-11"
     points="2431.37 783.87 1260.54 107.89 89.72 783.87 89.72 2135.82 1260.54 2811.8 2431.37 2135.82 2431.37 783.87"
     id="polygon1" /><path
     class="cls-10"
     d="M.04,2187.62v-19.4s.04-1416.73.04-1416.73l-.09-19.35L1260.59,4.34l1260.46,727.78.04,1455.48-1260.5,727.75-16.8-9.7L16.84,2197.32.04,2187.62ZM67.2,770.94l-.04,1377.93,1193.34,688.93,1193.3-688.95.04-1377.93L1260.5,81.99,67.2,770.94Z"
     id="path1"
     style="fill:#162d50"
     inkscape:export-filename="..\..\..\..\Users\朱云\Desktop\hyddg logo.png"
     inkscape:export-xdpi="96"
     inkscape:export-ydpi="96" /><polygon
     class="cls-1"
     points="1260.54 2837.82 2453.88 2148.84 2453.88 770.89 1260.54 81.92 67.2 770.89 67.2 2148.84 1260.54 2837.82"
     id="polygon2" /><polygon
     class="cls-1"
     points="1267.08 600.33 114.72 1265.65 114.72 1350.2 1063.44 802.45 1262.2 1146.71 114.72 1809.21 114.72 1893.76 1225.98 1252.17 1424.74 1596.42 315.1 2237.07 388.32 2279.35 2040.78 1325.3 2239.53 1669.56 785.83 2508.85 859.05 2551.13 1671.13 2082.27 1869.89 2426.53 1256.56 2780.63 1260.54 2782.93 2406.37 2121.39 2406.37 798.3 1260.54 136.76 114.72 798.3 114.72 806.64 1068.32 256.08 1267.08 600.33"
     id="polygon18" /><polygon
     class="cls-11"
     points="114.72 1809.21 64.72 1838.07 64.72 1922.62 114.72 1893.76 114.72 1809.21"
     id="polygon24" /><polygon
     class="cls-11"
     points="1260.54 79.02 64.72 769.43 64.72 835.51 114.72 806.64 114.72 798.3 1260.54 136.76 2406.37 798.3 2406.37 2121.39 1260.54 2782.93 1256.56 2780.63 1206.56 2809.5 1260.54 2840.66 2456.37 2150.25 2456.37 769.43 1260.54 79.02"
     id="polygon25" /><polygon
     class="cls-11"
     points="785.83 2508.85 735.83 2537.72 809.05 2580 859.05 2551.13 785.83 2508.85"
     id="polygon26" /><polygon
     class="cls-11"
     points="114.72 1265.65 64.72 1294.51 64.72 1379.07 114.72 1350.2 114.72 1265.65"
     id="polygon27" /><polygon
     class="cls-11"
     points="315.1 2237.07 265.1 2265.94 338.32 2308.22 388.32 2279.35 315.1 2237.07"
     id="polygon28" /><polygon
     class="cls-11"
     points="114.72 806.64 64.72 835.51 64.72 1294.51 114.72 1265.65 114.72 806.64"
     id="polygon29" /><polygon
     class="cls-11"
     points="114.72 1350.2 64.72 1379.07 64.72 1838.07 114.72 1809.21 114.72 1350.2"
     id="polygon30" /><polygon
     class="cls-11"
     points="114.72 2121.39 114.72 1893.76 64.72 1922.62 64.72 2150.25 265.1 2265.94 315.1 2237.07 114.72 2121.39"
     id="polygon31" /><polygon
     class="cls-11"
     points="388.32 2279.35 338.32 2308.22 735.83 2537.72 785.83 2508.85 388.32 2279.35"
     id="polygon32" /><polygon
     class="cls-11"
     points="859.05 2551.13 809.05 2580 1206.56 2809.5 1256.56 2780.63 859.05 2551.13"
     id="polygon33" /><ellipse
     style="fill:#e32039;fill-opacity:1;stroke-width:2.11276;stroke-linecap:round;stroke-linejoin:round"
     id="path33"
     cx="481.35748"
     cy="1007.7921"
     rx="140.06056"
     ry="135.23088" /><ellipse
     style="fill:#e32039;fill-opacity:1;stroke-width:2.11276;stroke-linecap:round;stroke-linejoin:round"
     id="path33-2"
     cx="952.00397"
     cy="1650.8348"
     rx="140.06056"
     ry="135.23088" /><ellipse
     style="fill:#e32039;fill-opacity:1;stroke-width:2.11276;stroke-linecap:round;stroke-linejoin:round"
     id="path33-1"
     cx="2086.4829"
     cy="1707.2705"
     rx="140.06056"
     ry="135.23088" /><ellipse
     style="fill:#e32039;fill-opacity:1;stroke-width:2.11276;stroke-linecap:round;stroke-linejoin:round"
     id="path33-20"
     cx="759.94714"
     cy="2071.7468"
     rx="140.06056"
     ry="135.23088" /><ellipse
     style="fill:#2db4bf;fill-opacity:1;stroke-width:2.11276;stroke-linecap:round;stroke-linejoin:round"
     id="path33-0"
     cx="1065.8531"
     cy="1128.9227"
     rx="140.06056"
     ry="135.23088" /><ellipse
     style="fill:#2db4bf;fill-opacity:1;stroke-width:2.11276;stroke-linecap:round;stroke-linejoin:round"
     id="path33-0-3"
     cx="1212.812"
     cy="1945.4355"
     rx="140.06056"
     ry="135.23088" /><ellipse
     style="fill:#2db4bf;fill-opacity:1;stroke-width:2.11276;stroke-linecap:round;stroke-linejoin:round"
     id="path33-0-8"
     cx="2073.8792"
     cy="2106.0151"
     rx="140.06056"
     ry="135.23088" /><ellipse
     style="fill:#848f8e;fill-opacity:1;stroke-width:2.11276;stroke-linecap:round;stroke-linejoin:round"
     id="path33-0-4"
     cx="372.41684"
     cy="1714.0028"
     rx="140.06056"
     ry="135.23088" /><ellipse
     style="fill:#848f8e;fill-opacity:1;stroke-width:2.11276;stroke-linecap:round;stroke-linejoin:round"
     id="path33-0-4-9"
     cx="689.37927"
     cy="1384.4066"
     rx="140.06056"
     ry="135.23088" /><ellipse
     style="fill:#848f8e;fill-opacity:1;stroke-width:2.11276;stroke-linecap:round;stroke-linejoin:round"
     id="path33-0-4-6"
     cx="1802.8307"
     cy="1513.7915"
     rx="140.06056"
     ry="135.23088" /><ellipse
     style="fill:#848f8e;fill-opacity:1;stroke-width:2.11276;stroke-linecap:round;stroke-linejoin:round"
     id="path33-0-4-4"
     cx="1732.6432"
     cy="2080.231"
     rx="140.06056"
     ry="135.23088" /><ellipse
     style="fill:#848f8e;fill-opacity:1;stroke-width:2.11276;stroke-linecap:round;stroke-linejoin:round"
     id="path33-0-4-3"
     cx="1394.274"
     cy="1512.7279"
     rx="140.06056"
     ry="135.23088" /><ellipse
     style="fill:#848f8e;fill-opacity:1;stroke-width:2.11276;stroke-linecap:round;stroke-linejoin:round"
     id="path33-0-4-3-5"
     cx="1187.8207"
     cy="2389.6084"
     rx="140.06056"
     ry="135.23088" /><ellipse
     style="fill:#848f8e;fill-opacity:1;stroke-width:2.11276;stroke-linecap:round;stroke-linejoin:round"
     id="path33-0-4-3-1"
     cx="1521.5906"
     cy="988.86353"
     rx="140.06056"
     ry="135.23088" /><ellipse
     style="fill:#848f8e;fill-opacity:1;stroke-width:2.11276;stroke-linecap:round;stroke-linejoin:round"
     id="path33-0-4-3-9"
     cx="2193.3042"
     cy="1199.6166"
     rx="140.06056"
     ry="135.23088" /><text
     xml:space="preserve"
     id="text33"
     style="font-size:3.33333px;line-height:1.3;font-family:Sans;-inkscape-font-specification:'Sans, Normal';text-align:center;white-space:pre;shape-inside:url(#rect33);display:inline;fill:#848f8e;fill-opacity:1;stroke-width:2.11276;stroke-linecap:round;stroke-linejoin:round" /><text
     xml:space="preserve"
     id="text34"
     style="font-size:3.33333px;line-height:1.3;font-family:Sans;-inkscape-font-specification:'Sans, Normal';text-align:center;white-space:pre;shape-inside:url(#rect34);display:inline;fill:#214478;fill-opacity:1;stroke-width:2.11276;stroke-linecap:round;stroke-linejoin:round"
     transform="matrix(94.436137,0,0,92.366264,-102401.11,-48371.298)"><tspan
       x="1092.2147"
       y="531.16115"
       id="tspan4"><tspan
         style="-inkscape-font-specification:Sans"
         id="tspan3">HyDDG</tspan></tspan></text></svg>
